<mxfile host="app.diagrams.net" modified="2021-08-18T09:18:35.166Z" agent="5.0 (Windows NT 10.0; Win64; x64) AppleWebKit/537.36 (KHTML, like Gecko) Chrome/92.0.4515.131 Safari/537.36" etag="tliwYjMxY8s_miN5uheV" version="14.9.7" type="github">
  <diagram id="lNUnMd44pd3dAqWRJb_r" name="Page-1">
    <mxGraphModel dx="782" dy="523" grid="0" gridSize="10" guides="1" tooltips="1" connect="1" arrows="1" fold="1" page="1" pageScale="1" pageWidth="827" pageHeight="1169" math="0" shadow="0">
      <root>
        <mxCell id="0" />
        <mxCell id="1" parent="0" />
        <mxCell id="pjDorfdVPrGBffWBS8YT-2" value="PaymentRequest" style="swimlane;fontStyle=0;childLayout=stackLayout;horizontal=1;startSize=26;horizontalStack=0;resizeParent=1;resizeParentMax=0;resizeLast=0;collapsible=1;marginBottom=0;sketch=1;fillColor=#dae8fc;strokeColor=#6c8ebf;" parent="1" vertex="1">
          <mxGeometry x="68" y="221" width="233" height="520" as="geometry" />
        </mxCell>
        <mxCell id="pjDorfdVPrGBffWBS8YT-3" value="payerUserId" style="text;strokeColor=none;fillColor=none;align=left;verticalAlign=top;spacingLeft=4;spacingRight=4;overflow=hidden;rotatable=0;points=[[0,0.5],[1,0.5]];portConstraint=eastwest;" parent="pjDorfdVPrGBffWBS8YT-2" vertex="1">
          <mxGeometry y="26" width="233" height="26" as="geometry" />
        </mxCell>
        <mxCell id="pjDorfdVPrGBffWBS8YT-4" value="payerUserSystem" style="text;strokeColor=none;fillColor=none;align=left;verticalAlign=top;spacingLeft=4;spacingRight=4;overflow=hidden;rotatable=0;points=[[0,0.5],[1,0.5]];portConstraint=eastwest;" parent="pjDorfdVPrGBffWBS8YT-2" vertex="1">
          <mxGeometry y="52" width="233" height="26" as="geometry" />
        </mxCell>
        <mxCell id="pjDorfdVPrGBffWBS8YT-5" value="payeeUserId" style="text;strokeColor=none;fillColor=none;align=left;verticalAlign=top;spacingLeft=4;spacingRight=4;overflow=hidden;rotatable=0;points=[[0,0.5],[1,0.5]];portConstraint=eastwest;" parent="pjDorfdVPrGBffWBS8YT-2" vertex="1">
          <mxGeometry y="78" width="233" height="26" as="geometry" />
        </mxCell>
        <mxCell id="pjDorfdVPrGBffWBS8YT-7" value="payeeUserSystem" style="text;strokeColor=none;fillColor=none;align=left;verticalAlign=top;spacingLeft=4;spacingRight=4;overflow=hidden;rotatable=0;points=[[0,0.5],[1,0.5]];portConstraint=eastwest;" parent="pjDorfdVPrGBffWBS8YT-2" vertex="1">
          <mxGeometry y="104" width="233" height="26" as="geometry" />
        </mxCell>
        <mxCell id="pjDorfdVPrGBffWBS8YT-9" value="merchantCode" style="text;strokeColor=none;fillColor=none;align=left;verticalAlign=top;spacingLeft=4;spacingRight=4;overflow=hidden;rotatable=0;points=[[0,0.5],[1,0.5]];portConstraint=eastwest;" parent="pjDorfdVPrGBffWBS8YT-2" vertex="1">
          <mxGeometry y="130" width="233" height="26" as="geometry" />
        </mxCell>
        <mxCell id="pjDorfdVPrGBffWBS8YT-10" value="tenant" style="text;strokeColor=none;fillColor=none;align=left;verticalAlign=top;spacingLeft=4;spacingRight=4;overflow=hidden;rotatable=0;points=[[0,0.5],[1,0.5]];portConstraint=eastwest;" parent="pjDorfdVPrGBffWBS8YT-2" vertex="1">
          <mxGeometry y="156" width="233" height="26" as="geometry" />
        </mxCell>
        <mxCell id="pjDorfdVPrGBffWBS8YT-11" value="subject" style="text;strokeColor=none;fillColor=none;align=left;verticalAlign=top;spacingLeft=4;spacingRight=4;overflow=hidden;rotatable=0;points=[[0,0.5],[1,0.5]];portConstraint=eastwest;" parent="pjDorfdVPrGBffWBS8YT-2" vertex="1">
          <mxGeometry y="182" width="233" height="26" as="geometry" />
        </mxCell>
        <mxCell id="pjDorfdVPrGBffWBS8YT-12" value="amount" style="text;strokeColor=none;fillColor=none;align=left;verticalAlign=top;spacingLeft=4;spacingRight=4;overflow=hidden;rotatable=0;points=[[0,0.5],[1,0.5]];portConstraint=eastwest;" parent="pjDorfdVPrGBffWBS8YT-2" vertex="1">
          <mxGeometry y="208" width="233" height="26" as="geometry" />
        </mxCell>
        <mxCell id="pjDorfdVPrGBffWBS8YT-13" value="currency" style="text;strokeColor=none;fillColor=none;align=left;verticalAlign=top;spacingLeft=4;spacingRight=4;overflow=hidden;rotatable=0;points=[[0,0.5],[1,0.5]];portConstraint=eastwest;" parent="pjDorfdVPrGBffWBS8YT-2" vertex="1">
          <mxGeometry y="234" width="233" height="26" as="geometry" />
        </mxCell>
        <mxCell id="pjDorfdVPrGBffWBS8YT-14" value="bizSource" style="text;strokeColor=none;fillColor=none;align=left;verticalAlign=top;spacingLeft=4;spacingRight=4;overflow=hidden;rotatable=0;points=[[0,0.5],[1,0.5]];portConstraint=eastwest;" parent="pjDorfdVPrGBffWBS8YT-2" vertex="1">
          <mxGeometry y="260" width="233" height="26" as="geometry" />
        </mxCell>
        <mxCell id="pjDorfdVPrGBffWBS8YT-15" value="businessType" style="text;strokeColor=none;fillColor=none;align=left;verticalAlign=top;spacingLeft=4;spacingRight=4;overflow=hidden;rotatable=0;points=[[0,0.5],[1,0.5]];portConstraint=eastwest;" parent="pjDorfdVPrGBffWBS8YT-2" vertex="1">
          <mxGeometry y="286" width="233" height="26" as="geometry" />
        </mxCell>
        <mxCell id="pjDorfdVPrGBffWBS8YT-16" value="subBusinessType" style="text;strokeColor=none;fillColor=none;align=left;verticalAlign=top;spacingLeft=4;spacingRight=4;overflow=hidden;rotatable=0;points=[[0,0.5],[1,0.5]];portConstraint=eastwest;" parent="pjDorfdVPrGBffWBS8YT-2" vertex="1">
          <mxGeometry y="312" width="233" height="26" as="geometry" />
        </mxCell>
        <mxCell id="pjDorfdVPrGBffWBS8YT-17" value="ou（orgUnit）" style="text;strokeColor=none;fillColor=none;align=left;verticalAlign=top;spacingLeft=4;spacingRight=4;overflow=hidden;rotatable=0;points=[[0,0.5],[1,0.5]];portConstraint=eastwest;" parent="pjDorfdVPrGBffWBS8YT-2" vertex="1">
          <mxGeometry y="338" width="233" height="26" as="geometry" />
        </mxCell>
        <mxCell id="pjDorfdVPrGBffWBS8YT-18" value="outOrderId" style="text;strokeColor=none;fillColor=none;align=left;verticalAlign=top;spacingLeft=4;spacingRight=4;overflow=hidden;rotatable=0;points=[[0,0.5],[1,0.5]];portConstraint=eastwest;" parent="pjDorfdVPrGBffWBS8YT-2" vertex="1">
          <mxGeometry y="364" width="233" height="26" as="geometry" />
        </mxCell>
        <mxCell id="pjDorfdVPrGBffWBS8YT-19" value="orderSource" style="text;strokeColor=none;fillColor=none;align=left;verticalAlign=top;spacingLeft=4;spacingRight=4;overflow=hidden;rotatable=0;points=[[0,0.5],[1,0.5]];portConstraint=eastwest;" parent="pjDorfdVPrGBffWBS8YT-2" vertex="1">
          <mxGeometry y="390" width="233" height="26" as="geometry" />
        </mxCell>
        <mxCell id="pjDorfdVPrGBffWBS8YT-20" value="initAmount" style="text;strokeColor=none;fillColor=none;align=left;verticalAlign=top;spacingLeft=4;spacingRight=4;overflow=hidden;rotatable=0;points=[[0,0.5],[1,0.5]];portConstraint=eastwest;" parent="pjDorfdVPrGBffWBS8YT-2" vertex="1">
          <mxGeometry y="416" width="233" height="26" as="geometry" />
        </mxCell>
        <mxCell id="pjDorfdVPrGBffWBS8YT-21" value="initCurrency" style="text;strokeColor=none;fillColor=none;align=left;verticalAlign=top;spacingLeft=4;spacingRight=4;overflow=hidden;rotatable=0;points=[[0,0.5],[1,0.5]];portConstraint=eastwest;" parent="pjDorfdVPrGBffWBS8YT-2" vertex="1">
          <mxGeometry y="442" width="233" height="26" as="geometry" />
        </mxCell>
        <mxCell id="pjDorfdVPrGBffWBS8YT-22" value="outOrderDate" style="text;strokeColor=none;fillColor=none;align=left;verticalAlign=top;spacingLeft=4;spacingRight=4;overflow=hidden;rotatable=0;points=[[0,0.5],[1,0.5]];portConstraint=eastwest;" parent="pjDorfdVPrGBffWBS8YT-2" vertex="1">
          <mxGeometry y="468" width="233" height="26" as="geometry" />
        </mxCell>
        <mxCell id="pjDorfdVPrGBffWBS8YT-23" value="payInstrumentOptions" style="text;strokeColor=none;fillColor=none;align=left;verticalAlign=top;spacingLeft=4;spacingRight=4;overflow=hidden;rotatable=0;points=[[0,0.5],[1,0.5]];portConstraint=eastwest;" parent="pjDorfdVPrGBffWBS8YT-2" vertex="1">
          <mxGeometry y="494" width="233" height="26" as="geometry" />
        </mxCell>
        <mxCell id="pjDorfdVPrGBffWBS8YT-24" value="payInstrumentOptions" style="swimlane;fontStyle=0;childLayout=stackLayout;horizontal=1;startSize=26;horizontalStack=0;resizeParent=1;resizeParentMax=0;resizeLast=0;collapsible=1;marginBottom=0;sketch=1;fillColor=#dae8fc;strokeColor=#6c8ebf;" parent="1" vertex="1">
          <mxGeometry x="370" y="663" width="165" height="156" as="geometry" />
        </mxCell>
        <mxCell id="pjDorfdVPrGBffWBS8YT-25" value="instrument" style="text;strokeColor=none;fillColor=none;align=left;verticalAlign=top;spacingLeft=4;spacingRight=4;overflow=hidden;rotatable=0;points=[[0,0.5],[1,0.5]];portConstraint=eastwest;" parent="pjDorfdVPrGBffWBS8YT-24" vertex="1">
          <mxGeometry y="26" width="165" height="26" as="geometry" />
        </mxCell>
        <mxCell id="pjDorfdVPrGBffWBS8YT-26" value="initCurrency" style="text;strokeColor=none;fillColor=none;align=left;verticalAlign=top;spacingLeft=4;spacingRight=4;overflow=hidden;rotatable=0;points=[[0,0.5],[1,0.5]];portConstraint=eastwest;" parent="pjDorfdVPrGBffWBS8YT-24" vertex="1">
          <mxGeometry y="52" width="165" height="26" as="geometry" />
        </mxCell>
        <mxCell id="pjDorfdVPrGBffWBS8YT-27" value="initAmount" style="text;strokeColor=none;fillColor=none;align=left;verticalAlign=top;spacingLeft=4;spacingRight=4;overflow=hidden;rotatable=0;points=[[0,0.5],[1,0.5]];portConstraint=eastwest;" parent="pjDorfdVPrGBffWBS8YT-24" vertex="1">
          <mxGeometry y="78" width="165" height="26" as="geometry" />
        </mxCell>
        <mxCell id="pjDorfdVPrGBffWBS8YT-28" value="currency" style="text;strokeColor=none;fillColor=none;align=left;verticalAlign=top;spacingLeft=4;spacingRight=4;overflow=hidden;rotatable=0;points=[[0,0.5],[1,0.5]];portConstraint=eastwest;" parent="pjDorfdVPrGBffWBS8YT-24" vertex="1">
          <mxGeometry y="104" width="165" height="26" as="geometry" />
        </mxCell>
        <mxCell id="pjDorfdVPrGBffWBS8YT-29" value="amount" style="text;strokeColor=none;fillColor=none;align=left;verticalAlign=top;spacingLeft=4;spacingRight=4;overflow=hidden;rotatable=0;points=[[0,0.5],[1,0.5]];portConstraint=eastwest;" parent="pjDorfdVPrGBffWBS8YT-24" vertex="1">
          <mxGeometry y="130" width="165" height="26" as="geometry" />
        </mxCell>
        <mxCell id="pjDorfdVPrGBffWBS8YT-31" style="edgeStyle=orthogonalEdgeStyle;rounded=0;sketch=1;orthogonalLoop=1;jettySize=auto;html=1;exitX=1;exitY=0.5;exitDx=0;exitDy=0;entryX=0;entryY=0.5;entryDx=0;entryDy=0;" parent="1" source="pjDorfdVPrGBffWBS8YT-23" target="pjDorfdVPrGBffWBS8YT-26" edge="1">
          <mxGeometry relative="1" as="geometry" />
        </mxCell>
        <mxCell id="3jIItRPpUmkq0STIgxw9-1" value="FpScenario" style="swimlane;fontStyle=0;childLayout=stackLayout;horizontal=1;startSize=26;horizontalStack=0;resizeParent=1;resizeParentMax=0;resizeLast=0;collapsible=1;marginBottom=0;fillColor=#dae8fc;strokeColor=#6c8ebf;sketch=1;" vertex="1" parent="1">
          <mxGeometry x="709" y="449" width="224" height="390" as="geometry" />
        </mxCell>
        <mxCell id="3jIItRPpUmkq0STIgxw9-2" value="merchantId" style="text;strokeColor=none;fillColor=none;align=left;verticalAlign=top;spacingLeft=4;spacingRight=4;overflow=hidden;rotatable=0;points=[[0,0.5],[1,0.5]];portConstraint=eastwest;" vertex="1" parent="3jIItRPpUmkq0STIgxw9-1">
          <mxGeometry y="26" width="224" height="26" as="geometry" />
        </mxCell>
        <mxCell id="3jIItRPpUmkq0STIgxw9-3" value="bizSource" style="text;strokeColor=none;fillColor=none;align=left;verticalAlign=top;spacingLeft=4;spacingRight=4;overflow=hidden;rotatable=0;points=[[0,0.5],[1,0.5]];portConstraint=eastwest;" vertex="1" parent="3jIItRPpUmkq0STIgxw9-1">
          <mxGeometry y="52" width="224" height="26" as="geometry" />
        </mxCell>
        <mxCell id="3jIItRPpUmkq0STIgxw9-4" value="businessType" style="text;strokeColor=none;fillColor=none;align=left;verticalAlign=top;spacingLeft=4;spacingRight=4;overflow=hidden;rotatable=0;points=[[0,0.5],[1,0.5]];portConstraint=eastwest;" vertex="1" parent="3jIItRPpUmkq0STIgxw9-1">
          <mxGeometry y="78" width="224" height="26" as="geometry" />
        </mxCell>
        <mxCell id="3jIItRPpUmkq0STIgxw9-5" value="subBusinessType" style="text;strokeColor=none;fillColor=none;align=left;verticalAlign=top;spacingLeft=4;spacingRight=4;overflow=hidden;rotatable=0;points=[[0,0.5],[1,0.5]];portConstraint=eastwest;" vertex="1" parent="3jIItRPpUmkq0STIgxw9-1">
          <mxGeometry y="104" width="224" height="26" as="geometry" />
        </mxCell>
        <mxCell id="3jIItRPpUmkq0STIgxw9-6" value="transactionType" style="text;strokeColor=none;fillColor=none;align=left;verticalAlign=top;spacingLeft=4;spacingRight=4;overflow=hidden;rotatable=0;points=[[0,0.5],[1,0.5]];portConstraint=eastwest;" vertex="1" parent="3jIItRPpUmkq0STIgxw9-1">
          <mxGeometry y="130" width="224" height="26" as="geometry" />
        </mxCell>
        <mxCell id="3jIItRPpUmkq0STIgxw9-7" value="description" style="text;strokeColor=none;fillColor=none;align=left;verticalAlign=top;spacingLeft=4;spacingRight=4;overflow=hidden;rotatable=0;points=[[0,0.5],[1,0.5]];portConstraint=eastwest;" vertex="1" parent="3jIItRPpUmkq0STIgxw9-1">
          <mxGeometry y="156" width="224" height="26" as="geometry" />
        </mxCell>
        <mxCell id="3jIItRPpUmkq0STIgxw9-8" value="identification" style="text;strokeColor=none;fillColor=none;align=left;verticalAlign=top;spacingLeft=4;spacingRight=4;overflow=hidden;rotatable=0;points=[[0,0.5],[1,0.5]];portConstraint=eastwest;" vertex="1" parent="3jIItRPpUmkq0STIgxw9-1">
          <mxGeometry y="182" width="224" height="26" as="geometry" />
        </mxCell>
        <mxCell id="3jIItRPpUmkq0STIgxw9-9" value="feature" style="text;strokeColor=none;fillColor=none;align=left;verticalAlign=top;spacingLeft=4;spacingRight=4;overflow=hidden;rotatable=0;points=[[0,0.5],[1,0.5]];portConstraint=eastwest;" vertex="1" parent="3jIItRPpUmkq0STIgxw9-1">
          <mxGeometry y="208" width="224" height="26" as="geometry" />
        </mxCell>
        <mxCell id="3jIItRPpUmkq0STIgxw9-10" value="status" style="text;strokeColor=none;fillColor=none;align=left;verticalAlign=top;spacingLeft=4;spacingRight=4;overflow=hidden;rotatable=0;points=[[0,0.5],[1,0.5]];portConstraint=eastwest;" vertex="1" parent="3jIItRPpUmkq0STIgxw9-1">
          <mxGeometry y="234" width="224" height="26" as="geometry" />
        </mxCell>
        <mxCell id="3jIItRPpUmkq0STIgxw9-11" value="creator" style="text;strokeColor=none;fillColor=none;align=left;verticalAlign=top;spacingLeft=4;spacingRight=4;overflow=hidden;rotatable=0;points=[[0,0.5],[1,0.5]];portConstraint=eastwest;" vertex="1" parent="3jIItRPpUmkq0STIgxw9-1">
          <mxGeometry y="260" width="224" height="26" as="geometry" />
        </mxCell>
        <mxCell id="3jIItRPpUmkq0STIgxw9-12" value="lastModifier" style="text;strokeColor=none;fillColor=none;align=left;verticalAlign=top;spacingLeft=4;spacingRight=4;overflow=hidden;rotatable=0;points=[[0,0.5],[1,0.5]];portConstraint=eastwest;" vertex="1" parent="3jIItRPpUmkq0STIgxw9-1">
          <mxGeometry y="286" width="224" height="26" as="geometry" />
        </mxCell>
        <mxCell id="3jIItRPpUmkq0STIgxw9-13" value="tenant" style="text;strokeColor=none;fillColor=none;align=left;verticalAlign=top;spacingLeft=4;spacingRight=4;overflow=hidden;rotatable=0;points=[[0,0.5],[1,0.5]];portConstraint=eastwest;" vertex="1" parent="3jIItRPpUmkq0STIgxw9-1">
          <mxGeometry y="312" width="224" height="26" as="geometry" />
        </mxCell>
        <mxCell id="3jIItRPpUmkq0STIgxw9-14" value="env" style="text;strokeColor=none;fillColor=none;align=left;verticalAlign=top;spacingLeft=4;spacingRight=4;overflow=hidden;rotatable=0;points=[[0,0.5],[1,0.5]];portConstraint=eastwest;" vertex="1" parent="3jIItRPpUmkq0STIgxw9-1">
          <mxGeometry y="338" width="224" height="26" as="geometry" />
        </mxCell>
        <mxCell id="3jIItRPpUmkq0STIgxw9-15" value="confSystem" style="text;strokeColor=none;fillColor=none;align=left;verticalAlign=top;spacingLeft=4;spacingRight=4;overflow=hidden;rotatable=0;points=[[0,0.5],[1,0.5]];portConstraint=eastwest;" vertex="1" parent="3jIItRPpUmkq0STIgxw9-1">
          <mxGeometry y="364" width="224" height="26" as="geometry" />
        </mxCell>
      </root>
    </mxGraphModel>
  </diagram>
</mxfile>
